<svg width="375" height="812" viewBox="0 0 375 812" fill="none" xmlns="http://www.w3.org/2000/svg">
<g clip-path="url(#clip0_1318_5247)">
<rect width="375" height="812" fill="white"/>
<rect x="-5" y="-9" width="388" height="1036" fill="#CADFFF"/>
<g filter="url(#filter0_i_1318_5247)">
<path d="M176 308.5C176 308.5 -62.712 223.949 -37.2942 181.361C-19.706 151.891 111.453 227.502 133.664 200.269C170.929 154.577 -65.0557 38.0001 -65.0557 38.0001" stroke="white" stroke-opacity="0.2" stroke-dasharray="8 8"/>
</g>
<g filter="url(#filter1_i_1318_5247)">
<path d="M-63.0473 305.584C-59.1809 293.113 -51.9393 281.955 -42.1238 273.345C-32.3084 264.735 -20.3019 259.008 -7.43337 256.799C5.4352 254.59 18.664 255.985 30.7889 260.829C42.9138 265.673 53.4619 273.778 61.2658 284.246C69.0697 294.714 73.8249 307.137 75.0053 320.14C76.1856 333.144 73.745 346.22 67.9536 357.922C62.1622 369.624 53.2459 379.496 42.1914 386.444C31.1369 393.392 18.3755 397.146 5.31952 397.291L4.53718 326.537L-63.0473 305.584Z" fill="white" fill-opacity="0.33"/>
</g>
<g filter="url(#filter2_d_1318_5247)">
<circle cx="296" cy="266" r="82" fill="#F0F6FF" fill-opacity="0.08" shape-rendering="crispEdges"/>
</g>
<g filter="url(#filter3_di_1318_5247)">
<circle cx="295" cy="265" r="94" stroke="url(#paint0_linear_1318_5247)" stroke-opacity="0.2" stroke-width="2" stroke-dasharray="8 8" shape-rendering="crispEdges"/>
</g>
<g filter="url(#filter4_i_1318_5247)">
<path d="M85 13C85 57.1828 49.1828 93 5 93C-39.1828 93 -75 57.1828 -75 13C-75 -31.1828 -39.1828 -67 5 -67C49.1828 -67 85 -31.1828 85 13ZM-24.4246 13C-24.4246 29.2508 -11.2508 42.4246 5 42.4246C21.2508 42.4246 34.4246 29.2508 34.4246 13C34.4246 -3.25075 21.2508 -16.4246 5 -16.4246C-11.2508 -16.4246 -24.4246 -3.25075 -24.4246 13Z" fill="white" fill-opacity="0.3"/>
</g>
<g filter="url(#filter5_i_1318_5247)">
<path d="M284.035 12.0461C284.644 0.437332 299.752 -3.61085 306.083 6.13843L336.511 52.9938C339.343 57.3538 344.659 59.3948 349.681 58.0492L403.646 43.5894C414.875 40.5807 423.393 53.6983 416.078 62.7323L380.918 106.15C377.647 110.191 377.349 115.878 380.18 120.238L410.608 167.093C416.94 176.843 407.096 188.998 396.244 184.832L344.086 164.81C339.233 162.947 333.731 164.421 330.46 168.462L295.301 211.88C287.985 220.914 273.383 215.308 273.991 203.7L276.915 147.908C277.187 142.716 274.085 137.94 269.232 136.077L217.074 116.055C206.222 111.889 207.04 96.2698 218.269 93.2611L272.234 78.8012C277.255 77.4557 280.839 73.0297 281.111 67.8381L284.035 12.0461Z" fill="white" fill-opacity="0.18"/>
</g>
</g>
<defs>
<filter id="filter0_i_1318_5247" x="-65.2773" y="37.5518" width="241.444" height="271.419" filterUnits="userSpaceOnUse" color-interpolation-filters="sRGB">
<feFlood flood-opacity="0" result="BackgroundImageFix"/>
<feBlend mode="normal" in="SourceGraphic" in2="BackgroundImageFix" result="shape"/>
<feColorMatrix in="SourceAlpha" type="matrix" values="0 0 0 0 0 0 0 0 0 0 0 0 0 0 0 0 0 0 127 0" result="hardAlpha"/>
<feOffset/>
<feGaussianBlur stdDeviation="5"/>
<feComposite in2="hardAlpha" operator="arithmetic" k2="-1" k3="1"/>
<feColorMatrix type="matrix" values="0 0 0 0 1 0 0 0 0 1 0 0 0 0 1 0 0 0 0.25 0"/>
<feBlend mode="normal" in2="shape" result="effect1_innerShadow_1318_5247"/>
</filter>
<filter id="filter1_i_1318_5247" x="-63.0469" y="255.779" width="138.342" height="141.511" filterUnits="userSpaceOnUse" color-interpolation-filters="sRGB">
<feFlood flood-opacity="0" result="BackgroundImageFix"/>
<feBlend mode="normal" in="SourceGraphic" in2="BackgroundImageFix" result="shape"/>
<feColorMatrix in="SourceAlpha" type="matrix" values="0 0 0 0 0 0 0 0 0 0 0 0 0 0 0 0 0 0 127 0" result="hardAlpha"/>
<feOffset/>
<feGaussianBlur stdDeviation="5"/>
<feComposite in2="hardAlpha" operator="arithmetic" k2="-1" k3="1"/>
<feColorMatrix type="matrix" values="0 0 0 0 1 0 0 0 0 1 0 0 0 0 1 0 0 0 0.25 0"/>
<feBlend mode="normal" in2="shape" result="effect1_innerShadow_1318_5247"/>
</filter>
<filter id="filter2_d_1318_5247" x="204" y="178" width="184" height="184" filterUnits="userSpaceOnUse" color-interpolation-filters="sRGB">
<feFlood flood-opacity="0" result="BackgroundImageFix"/>
<feColorMatrix in="SourceAlpha" type="matrix" values="0 0 0 0 0 0 0 0 0 0 0 0 0 0 0 0 0 0 127 0" result="hardAlpha"/>
<feOffset dy="4"/>
<feGaussianBlur stdDeviation="5"/>
<feComposite in2="hardAlpha" operator="out"/>
<feColorMatrix type="matrix" values="0 0 0 0 1 0 0 0 0 1 0 0 0 0 1 0 0 0 0.25 0"/>
<feBlend mode="normal" in2="BackgroundImageFix" result="effect1_dropShadow_1318_5247"/>
<feBlend mode="normal" in="SourceGraphic" in2="effect1_dropShadow_1318_5247" result="shape"/>
</filter>
<filter id="filter3_di_1318_5247" x="190" y="160" width="210" height="210" filterUnits="userSpaceOnUse" color-interpolation-filters="sRGB">
<feFlood flood-opacity="0" result="BackgroundImageFix"/>
<feColorMatrix in="SourceAlpha" type="matrix" values="0 0 0 0 0 0 0 0 0 0 0 0 0 0 0 0 0 0 127 0" result="hardAlpha"/>
<feOffset/>
<feGaussianBlur stdDeviation="5"/>
<feComposite in2="hardAlpha" operator="out"/>
<feColorMatrix type="matrix" values="0 0 0 0 1 0 0 0 0 1 0 0 0 0 1 0 0 0 0.25 0"/>
<feBlend mode="normal" in2="BackgroundImageFix" result="effect1_dropShadow_1318_5247"/>
<feBlend mode="normal" in="SourceGraphic" in2="effect1_dropShadow_1318_5247" result="shape"/>
<feColorMatrix in="SourceAlpha" type="matrix" values="0 0 0 0 0 0 0 0 0 0 0 0 0 0 0 0 0 0 127 0" result="hardAlpha"/>
<feOffset/>
<feGaussianBlur stdDeviation="15"/>
<feComposite in2="hardAlpha" operator="arithmetic" k2="-1" k3="1"/>
<feColorMatrix type="matrix" values="0 0 0 0 1 0 0 0 0 1 0 0 0 0 1 0 0 0 0.25 0"/>
<feBlend mode="normal" in2="shape" result="effect2_innerShadow_1318_5247"/>
</filter>
<filter id="filter4_i_1318_5247" x="-75" y="-67" width="160" height="160" filterUnits="userSpaceOnUse" color-interpolation-filters="sRGB">
<feFlood flood-opacity="0" result="BackgroundImageFix"/>
<feBlend mode="normal" in="SourceGraphic" in2="BackgroundImageFix" result="shape"/>
<feColorMatrix in="SourceAlpha" type="matrix" values="0 0 0 0 0 0 0 0 0 0 0 0 0 0 0 0 0 0 127 0" result="hardAlpha"/>
<feOffset/>
<feGaussianBlur stdDeviation="5"/>
<feComposite in2="hardAlpha" operator="arithmetic" k2="-1" k3="1"/>
<feColorMatrix type="matrix" values="0 0 0 0 1 0 0 0 0 1 0 0 0 0 1 0 0 0 0.25 0"/>
<feBlend mode="normal" in2="shape" result="effect1_innerShadow_1318_5247"/>
</filter>
<filter id="filter5_i_1318_5247" x="209.374" y="0.657227" width="209.43" height="215.7" filterUnits="userSpaceOnUse" color-interpolation-filters="sRGB">
<feFlood flood-opacity="0" result="BackgroundImageFix"/>
<feBlend mode="normal" in="SourceGraphic" in2="BackgroundImageFix" result="shape"/>
<feColorMatrix in="SourceAlpha" type="matrix" values="0 0 0 0 0 0 0 0 0 0 0 0 0 0 0 0 0 0 127 0" result="hardAlpha"/>
<feOffset/>
<feGaussianBlur stdDeviation="5"/>
<feComposite in2="hardAlpha" operator="arithmetic" k2="-1" k3="1"/>
<feColorMatrix type="matrix" values="0 0 0 0 1 0 0 0 0 1 0 0 0 0 1 0 0 0 0.25 0"/>
<feBlend mode="normal" in2="shape" result="effect1_innerShadow_1318_5247"/>
</filter>
<linearGradient id="paint0_linear_1318_5247" x1="355.413" y1="129.417" x2="295" y2="360" gradientUnits="userSpaceOnUse">
<stop stop-color="white" stop-opacity="0.4"/>
<stop offset="1" stop-color="white"/>
</linearGradient>
<clipPath id="clip0_1318_5247">
<rect width="375" height="812" fill="white"/>
</clipPath>
</defs>
</svg>
