<svg width="24" height="28" viewBox="0 0 24 28" fill="none" xmlns="http://www.w3.org/2000/svg">
<path d="M12.2298 4.06483L11.369 1.96597C11.198 1.54914 10.7623 1.30516 10.3176 1.37725V1.37725C9.48746 1.51181 9.21121 2.56754 9.86903 3.09146L10.8447 3.8685" stroke="#757575" stroke-width="0.70073" stroke-linecap="round"/>
<path d="M12.4949 4.06483L13.3557 1.96597C13.5266 1.54914 13.9624 1.30516 14.4071 1.37725V1.37725C15.2372 1.51181 15.5135 2.56754 14.8556 3.09146L13.88 3.8685" stroke="#757575" stroke-width="0.70073" stroke-linecap="round"/>
<circle cx="12" cy="15.6055" r="12" fill="#BABABA"/>
<path d="M7.10552 9.21245L6.40479 8.51172" stroke="#757575" stroke-width="0.350365"/>
<path d="M10.2587 9.03667L10.9594 8.33594" stroke="#757575" stroke-width="0.350365"/>
<path d="M8.66597 8.8014L8.68207 7.81055" stroke="#757575" stroke-width="0.350365"/>
<circle cx="8.85726" cy="12.1023" r="3.50365" fill="white"/>
<circle cx="8.85721" cy="12.1027" r="2.80292" fill="#757575"/>
<path d="M7.80616 10.1758L7.9481 10.5594L8.3317 10.7013L7.9481 10.8433L7.80616 11.2269L7.66421 10.8433L7.28061 10.7013L7.66421 10.5594L7.80616 10.1758Z" fill="#D9D9D9"/>
<path d="M14.1134 9.21245L13.4126 8.51172" stroke="#757575" stroke-width="0.350365"/>
<path d="M17.2665 9.03667L17.9673 8.33594" stroke="#757575" stroke-width="0.350365"/>
<path d="M15.6738 8.8014L15.6899 7.81055" stroke="#757575" stroke-width="0.350365"/>
<circle cx="15.8651" cy="12.1023" r="3.50365" fill="white"/>
<circle cx="15.8651" cy="12.1027" r="2.80292" fill="#757575"/>
<path d="M14.814 10.1758L14.956 10.5594L15.3396 10.7013L14.956 10.8433L14.814 11.2269L14.6721 10.8433L14.2885 10.7013L14.6721 10.5594L14.814 10.1758Z" fill="#D9D9D9"/>
</svg>
