<svg width="24" height="28" viewBox="0 0 24 28" fill="none" xmlns="http://www.w3.org/2000/svg">
<path d="M10.5985 2.40146V2.40146C11.2274 3.03034 12.247 3.03034 12.8759 2.40146L14.2774 1" stroke="#757575" stroke-width="1.62559" stroke-linecap="round"/>
<circle cx="12" cy="15.0146" r="12" fill="#BABABA"/>
<circle cx="8.75914" cy="10.8103" r="3.50365" fill="white"/>
<path d="M11.562 10.8107C11.562 11.1788 11.4895 11.5433 11.3487 11.8834C11.2078 12.2234 11.0013 12.5324 10.7411 12.7927C10.4808 13.053 10.1718 13.2594 9.83173 13.4003C9.49166 13.5412 9.12718 13.6137 8.7591 13.6137C8.39101 13.6137 8.02653 13.5412 7.68647 13.4003C7.3464 13.2594 7.03741 13.053 6.77713 12.7927C6.51686 12.5324 6.3104 12.2234 6.16954 11.8834C6.02868 11.5433 5.95618 11.1788 5.95618 10.8107L8.7591 10.8107H11.562Z" fill="#757575"/>
<rect x="6.39413" y="7.13184" width="4.72993" height="0.875913" rx="0.437956" fill="#757575"/>
<circle cx="15.7663" cy="10.8103" r="3.50365" fill="white"/>
<path d="M18.5692 10.8107C18.5692 11.1788 18.4967 11.5433 18.3558 11.8834C18.215 12.2234 18.0085 12.5324 17.7482 12.7927C17.488 13.053 17.179 13.2594 16.8389 13.4003C16.4988 13.5412 16.1344 13.6137 15.7663 13.6137C15.3982 13.6137 15.0337 13.5412 14.6936 13.4003C14.3536 13.2594 14.0446 13.053 13.7843 12.7927C13.524 12.5324 13.3176 12.2234 13.1767 11.8834C13.0358 11.5433 12.9633 11.1788 12.9633 10.8107L15.7663 10.8107H18.5692Z" fill="#757575"/>
<rect x="13.4013" y="7.13184" width="4.72993" height="0.875913" rx="0.437956" fill="#757575"/>
</svg>
