<svg width="24" height="26" viewBox="0 0 24 26" fill="none" xmlns="http://www.w3.org/2000/svg">
<circle cx="11.9695" cy="13.2293" r="11.7849" fill="#BABABA"/>
<circle cx="8.17121" cy="8.92914" r="3.44086" fill="white"/>
<circle cx="8.51531" cy="8.92958" r="1.89247" fill="#757575"/>
<circle cx="3.44086" cy="3.44086" r="3.44086" transform="matrix(-1 0 0 1 18.8382 5.48828)" fill="white"/>
<circle cx="1.89247" cy="1.89247" r="1.89247" transform="matrix(-1 0 0 1 16.9457 7.03711)" fill="#757575"/>
<path d="M9.46234 1.58813L9.64517 1.40909C9.86511 1.1937 10.22 1.20414 10.4268 1.43208L10.4384 1.44476C10.6476 1.67527 11.0099 1.67527 11.2192 1.44476V1.44476C11.4284 1.21425 11.7907 1.21425 12 1.44476V1.44476C12.2092 1.67527 12.5716 1.67527 12.7808 1.44476V1.44476C12.99 1.21425 13.3524 1.21425 13.5616 1.44476L13.5731 1.45743C13.78 1.68537 14.1348 1.69581 14.3548 1.48043L14.5376 1.30139" stroke="#757575" stroke-width="0.688172" stroke-linecap="round"/>
</svg>
