<svg width="105" height="22" viewBox="0 0 105 22" fill="none" xmlns="http://www.w3.org/2000/svg">
<path d="M10.544 12.74C10.704 12.836 10.744 13.012 10.664 13.268C10.44 13.972 9.88 14.588 8.984 15.116C8.088 15.628 7.016 15.884 5.768 15.884C4.152 15.884 2.784 15.332 1.664 14.228C0.56 13.124 0.00800008 11.66 0.00800008 9.836C0.00800008 7.772 0.576 6.204 1.712 5.132C2.864 4.044 4.32 3.5 6.08 3.5C7.232 3.5 8.272 3.772 9.2 4.316C10.128 4.844 10.592 5.532 10.592 6.38C10.592 6.796 10.44 7.156 10.136 7.46C9.848 7.748 9.496 7.892 9.08 7.892C8.664 7.892 8.304 7.748 8 7.46C7.712 7.156 7.568 6.796 7.568 6.38C7.568 6.124 7.616 5.9 7.712 5.708C7.84 5.452 7.776 5.212 7.52 4.988C7.264 4.748 6.912 4.628 6.464 4.628C4.528 4.628 3.56 6.172 3.56 9.26C3.56 10.764 3.872 11.932 4.496 12.764C5.136 13.58 5.92 13.988 6.848 13.988C8.128 13.988 9.216 13.596 10.112 12.812C10.256 12.684 10.4 12.66 10.544 12.74ZM13.7253 5.204C14.9093 4.068 16.3253 3.5 17.9733 3.5C19.6213 3.5 21.0373 4.068 22.2213 5.204C23.4053 6.324 23.9973 7.82 23.9973 9.692C23.9973 11.564 23.4053 13.068 22.2213 14.204C21.0373 15.324 19.6213 15.884 17.9733 15.884C16.3253 15.884 14.9093 15.324 13.7253 14.204C12.5573 13.068 11.9733 11.564 11.9733 9.692C11.9733 7.82 12.5573 6.324 13.7253 5.204ZM16.1493 13.412C16.5813 14.292 17.1893 14.732 17.9733 14.732C18.7573 14.732 19.3653 14.292 19.7973 13.412C20.2293 12.532 20.4453 11.292 20.4453 9.692C20.4453 8.092 20.2293 6.852 19.7973 5.972C19.3653 5.076 18.7573 4.628 17.9733 4.628C17.1893 4.628 16.5813 5.068 16.1493 5.948C15.7333 6.828 15.5253 8.076 15.5253 9.692C15.5253 11.292 15.7333 12.532 16.1493 13.412ZM35.9969 11.492C36.1409 11.54 36.2129 11.644 36.2129 11.804L36.0449 15.116C36.0289 15.372 35.9009 15.5 35.6609 15.5H26.2289C25.9569 15.5 25.7889 15.444 25.7249 15.332C25.6769 15.252 25.7089 15.068 25.8209 14.78C25.8209 14.764 25.9489 14.54 26.2049 14.108L31.4609 5.132H27.9329L26.4689 7.676C26.4049 7.788 26.3089 7.844 26.1809 7.844C26.1809 7.844 26.1729 7.836 26.1569 7.82C26.1409 7.82 26.1249 7.82 26.1089 7.82C25.9329 7.756 25.8609 7.644 25.8929 7.484L26.2769 4.244C26.2929 3.988 26.4369 3.86 26.7089 3.86H35.4449C35.7009 3.86 35.8689 3.924 35.9489 4.052C35.9969 4.148 35.9729 4.324 35.8769 4.58C35.8609 4.628 35.7329 4.86 35.4929 5.276L30.2129 14.228H34.3649L35.6369 11.66C35.7009 11.532 35.7889 11.468 35.9009 11.468C35.9169 11.468 35.9329 11.476 35.9489 11.492C35.9649 11.492 35.9809 11.492 35.9969 11.492ZM49.8024 3.86C50.0424 3.86 50.1624 3.972 50.1624 4.196C50.1624 4.404 50.0504 4.548 49.8264 4.628L48.4344 5.252L43.7064 16.988C43.6104 17.244 43.4824 17.54 43.3224 17.876C43.1784 18.212 43.0984 18.396 43.0824 18.428C42.5544 19.58 42.0664 20.372 41.6184 20.804C41.1704 21.236 40.5544 21.452 39.7704 21.452C39.3224 21.452 38.9304 21.292 38.5944 20.972C38.2744 20.652 38.1144 20.26 38.1144 19.796C38.1144 19.348 38.2744 18.964 38.5944 18.644C38.9144 18.324 39.3064 18.164 39.7704 18.164C40.1384 18.164 40.4744 18.276 40.7784 18.5C40.8904 18.596 40.9864 18.652 41.0664 18.668C41.1624 18.7 41.2904 18.636 41.4504 18.476C41.6104 18.332 41.7704 18.06 41.9304 17.66L42.6984 15.74L38.4744 5.252L37.5144 4.628C37.2904 4.5 37.1784 4.356 37.1784 4.196C37.1784 3.972 37.2984 3.86 37.5384 3.86H43.0584C43.2984 3.86 43.4184 3.972 43.4184 4.196C43.4184 4.372 43.3144 4.516 43.1064 4.628L42.2664 5.18L44.4984 11.276L46.9704 5.18L45.7464 4.628C45.5224 4.548 45.4104 4.404 45.4104 4.196C45.4104 3.972 45.5304 3.86 45.7704 3.86H49.8024Z" fill="#FFE28B"/>
<path d="M70.0503 14.732C70.2743 14.828 70.3863 14.972 70.3863 15.164C70.3863 15.388 70.2663 15.5 70.0263 15.5H64.6503C64.4103 15.5 64.2903 15.388 64.2903 15.164C64.2903 14.972 64.3943 14.828 64.6023 14.732L65.5623 14.252V8.204C65.5623 7.068 65.4583 6.292 65.2503 5.876C65.0423 5.46 64.6503 5.252 64.0743 5.252C63.4023 5.252 62.7463 5.676 62.1063 6.524C62.1383 6.876 62.1543 7.14 62.1543 7.316V14.252L63.0903 14.732C63.3143 14.828 63.4263 14.972 63.4263 15.164C63.4263 15.388 63.3063 15.5 63.0663 15.5H57.6903C57.4503 15.5 57.3303 15.388 57.3303 15.164C57.3303 14.972 57.4423 14.828 57.6663 14.732L58.6263 14.252V8.204C58.6263 7.084 58.5143 6.316 58.2903 5.9C58.0823 5.468 57.6903 5.252 57.1143 5.252C56.4583 5.252 55.8263 5.7 55.2183 6.596V14.252L56.1543 14.732C56.3783 14.844 56.4903 14.988 56.4903 15.164C56.4903 15.388 56.3703 15.5 56.1303 15.5H50.7543C50.5143 15.5 50.3943 15.388 50.3943 15.164C50.3943 14.972 50.5063 14.828 50.7303 14.732L51.6663 14.252V5.396H50.8263C50.5383 5.396 50.3943 5.276 50.3943 5.036C50.3943 4.812 50.5223 4.668 50.7783 4.604L54.6423 3.524C54.8023 3.476 54.9383 3.484 55.0503 3.548C55.1623 3.612 55.2183 3.732 55.2183 3.908V5.036C56.0503 4.012 57.0743 3.5 58.2903 3.5C60.0663 3.5 61.2183 4.052 61.7463 5.156C62.6903 4.052 63.8583 3.5 65.2503 3.5C66.5623 3.5 67.5303 3.812 68.1543 4.436C68.7783 5.044 69.0903 6.004 69.0903 7.316V14.252L70.0503 14.732ZM83.5276 14.084C83.6716 14.196 83.6716 14.364 83.5276 14.588C83.0156 15.452 82.0396 15.884 80.5996 15.884C79.5436 15.884 78.8316 15.5 78.4636 14.732C77.9676 15.5 76.9116 15.884 75.2956 15.884C74.2556 15.884 73.3996 15.58 72.7276 14.972C72.0716 14.348 71.7436 13.524 71.7436 12.5C71.7436 11.956 71.8476 11.476 72.0556 11.06C72.2636 10.628 72.5756 10.276 72.9916 10.004C73.4076 9.716 73.8076 9.492 74.1916 9.332C74.5916 9.172 75.0796 9.004 75.6556 8.828C76.4716 8.588 77.3596 8.388 78.3196 8.228V6.308C78.3196 5.732 78.2076 5.308 77.9836 5.036C77.7596 4.764 77.3836 4.628 76.8556 4.628C76.2796 4.628 75.8236 4.732 75.4876 4.94C75.1516 5.132 75.0716 5.38 75.2476 5.684C75.4396 6.02 75.5356 6.34 75.5356 6.644C75.5356 7.108 75.3756 7.5 75.0556 7.82C74.7356 8.14 74.3516 8.3 73.9036 8.3C73.4396 8.3 73.0476 8.14 72.7276 7.82C72.4076 7.5 72.2476 7.108 72.2476 6.644C72.2476 5.7 72.7196 4.94 73.6636 4.364C74.6236 3.788 75.7756 3.5 77.1196 3.5C78.9116 3.5 80.1516 3.796 80.8396 4.388C81.5276 4.964 81.8716 5.956 81.8716 7.364V13.532C81.8716 14.092 82.0316 14.372 82.3516 14.372C82.5916 14.372 82.8476 14.292 83.1196 14.132C83.3116 14.036 83.4476 14.02 83.5276 14.084ZM76.7836 14.276C77.3916 14.276 77.9036 13.996 78.3196 13.436V9.356C77.5516 9.564 77.0236 9.74 76.7356 9.884C75.7756 10.348 75.2956 11.172 75.2956 12.356C75.2956 13.636 75.7916 14.276 76.7836 14.276ZM92.4013 13.46C92.5453 13.588 92.5293 13.796 92.3533 14.084C92.0173 14.58 91.4653 15.004 90.6973 15.356C89.9293 15.708 89.1373 15.884 88.3213 15.884C87.3773 15.884 86.6973 15.676 86.2813 15.26C85.8813 14.828 85.6813 14.188 85.6813 13.34V5.132H84.0253V3.86H85.6813V1.532L88.6093 0.163999C88.7533 0.0839987 88.8893 0.0759988 89.0173 0.139999C89.1453 0.203999 89.2093 0.331999 89.2093 0.524V3.86H92.2333V5.132H89.2093V12.836C89.2093 13.604 89.4573 13.988 89.9533 13.988C90.5613 13.988 91.2173 13.82 91.9213 13.484C92.1453 13.372 92.3053 13.364 92.4013 13.46ZM103.091 9.692H97.0906C97.1386 11.02 97.4826 12.068 98.1226 12.836C98.7786 13.604 99.5466 13.988 100.427 13.988C101.627 13.988 102.675 13.596 103.571 12.812C103.715 12.684 103.859 12.66 104.003 12.74C104.147 12.82 104.179 12.996 104.099 13.268C103.875 13.972 103.339 14.588 102.491 15.116C101.643 15.628 100.595 15.884 99.3466 15.884C97.8266 15.884 96.4746 15.332 95.2906 14.228C94.1226 13.124 93.5386 11.692 93.5386 9.932C93.5386 8.028 94.1066 6.484 95.2426 5.3C96.3786 4.1 97.7946 3.5 99.4906 3.5C100.995 3.5 102.211 3.988 103.139 4.964C104.067 5.924 104.531 7.164 104.531 8.684C104.531 9.1 104.443 9.372 104.267 9.5C104.091 9.628 103.699 9.692 103.091 9.692ZM97.1146 8.42H101.243C101.243 7.284 101.051 6.372 100.667 5.684C100.283 4.98 99.7626 4.628 99.1066 4.628C97.8906 4.628 97.2266 5.892 97.1146 8.42Z" fill="#BDD8FF"/>
</svg>
