<svg width="40" height="45" viewBox="0 0 40 45" fill="none" xmlns="http://www.w3.org/2000/svg">
<g clip-path="url(#clip0_1302_28592)" filter="url(#filter0_d_1302_28592)">
<path fill-rule="evenodd" clip-rule="evenodd" d="M20.0003 31.6666C20.4424 31.6666 20.8663 31.8422 21.1788 32.1547C21.4914 32.4673 21.667 32.8912 21.667 33.3333V34.9999C21.667 35.4419 21.4914 35.8659 21.1788 36.1784C20.8663 36.491 20.4424 36.6666 20.0003 36.6666C19.5583 36.6666 19.1344 36.491 18.8218 36.1784C18.5093 35.8659 18.3337 35.4419 18.3337 34.9999V33.3333C18.3337 32.8912 18.5093 32.4673 18.8218 32.1547C19.1344 31.8422 19.5583 31.6666 20.0003 31.6666ZM28.2503 28.2499C28.5373 27.963 28.9192 27.7906 29.3242 27.7651C29.7292 27.7396 30.1297 27.8628 30.4503 28.1116L30.607 28.2499L31.7853 29.4283C32.0842 29.7282 32.2578 30.1306 32.2707 30.5539C32.2836 30.9771 32.135 31.3894 31.8549 31.707C31.5749 32.0247 31.1844 32.2238 30.7629 32.2639C30.3413 32.3041 29.9203 32.1823 29.5853 31.9233L29.4287 31.7849L28.2503 30.6066C27.9379 30.294 27.7624 29.8702 27.7624 29.4283C27.7624 28.9863 27.9379 28.5625 28.2503 28.2499ZM11.7503 28.2499C12.0628 28.5625 12.2383 28.9863 12.2383 29.4283C12.2383 29.8702 12.0628 30.294 11.7503 30.6066L10.572 31.7849C10.2577 32.0885 9.83666 32.2565 9.39967 32.2527C8.96267 32.2489 8.54465 32.0736 8.23564 31.7646C7.92663 31.4556 7.75134 31.0376 7.74755 30.6006C7.74375 30.1636 7.91174 29.7426 8.21534 29.4283L9.39367 28.2499C9.70622 27.9375 10.1301 27.7619 10.572 27.7619C11.0139 27.7619 11.4378 27.9375 11.7503 28.2499ZM20.0003 3.33325C20.4086 3.33331 20.8026 3.48318 21.1076 3.75444C21.4127 4.02571 21.6076 4.3995 21.6553 4.80492L21.667 4.99992V6.83325L35.292 20.4599C36.307 21.4733 35.6637 23.1766 34.292 23.3233L34.102 23.3333H28.167C27.7877 25.1841 26.7909 26.8512 25.34 28.0614C23.8891 29.2716 22.0702 29.953 20.1813 29.9941C18.2924 30.0351 16.4456 29.4334 14.9435 28.2874C13.4414 27.1414 12.3731 25.5192 11.9137 23.6866L11.8337 23.3333H5.90034C4.46534 23.3333 3.717 21.6749 4.582 20.6016L4.71034 20.4599L18.3337 6.83325V4.99992C18.3337 4.55789 18.5093 4.13397 18.8218 3.82141C19.1344 3.50885 19.5583 3.33325 20.0003 3.33325ZM24.717 23.3333H15.2837C15.6197 24.2837 16.235 25.1105 17.0491 25.7051C17.8632 26.2998 18.8379 26.6345 19.8456 26.6655C20.8532 26.6965 21.8467 26.4223 22.6958 25.8788C23.5449 25.3353 24.2099 24.5479 24.6037 23.6199L24.717 23.3333Z" fill="#68A4FF"/>
</g>
<defs>
<filter id="filter0_d_1302_28592" x="-4" y="0" width="48" height="48" filterUnits="userSpaceOnUse" color-interpolation-filters="sRGB">
<feFlood flood-opacity="0" result="BackgroundImageFix"/>
<feColorMatrix in="SourceAlpha" type="matrix" values="0 0 0 0 0 0 0 0 0 0 0 0 0 0 0 0 0 0 127 0" result="hardAlpha"/>
<feOffset dy="4"/>
<feGaussianBlur stdDeviation="2"/>
<feComposite in2="hardAlpha" operator="out"/>
<feColorMatrix type="matrix" values="0 0 0 0 0 0 0 0 0 0 0 0 0 0 0 0 0 0 0.25 0"/>
<feBlend mode="normal" in2="BackgroundImageFix" result="effect1_dropShadow_1302_28592"/>
<feBlend mode="normal" in="SourceGraphic" in2="effect1_dropShadow_1302_28592" result="shape"/>
</filter>
<clipPath id="clip0_1302_28592">
<rect width="40" height="40" fill="white"/>
</clipPath>
</defs>
</svg>
