<svg width="300" height="56" viewBox="0 0 300 56" fill="none" xmlns="http://www.w3.org/2000/svg">
<rect width="300" height="56" rx="28" fill="#121212"/>
<path d="M93.6437 33.5861C93.3385 34.2848 92.9772 34.928 92.5586 35.5193C91.9881 36.3255 91.5209 36.8835 91.1609 37.1934C90.6027 37.702 90.0048 37.9625 89.3644 37.9773C88.9047 37.9773 88.3504 37.8477 87.705 37.5847C87.0576 37.323 86.4626 37.1934 85.9186 37.1934C85.348 37.1934 84.7361 37.323 84.0815 37.5847C83.426 37.8477 82.8979 37.9847 82.4942 37.9983C81.8801 38.0242 81.2681 37.7563 80.6571 37.1934C80.2672 36.8563 79.7795 36.2786 79.1952 35.4601C78.5683 34.586 78.0529 33.5725 77.6492 32.417C77.2168 31.1689 77 29.9603 77 28.7902C77 27.4498 77.2923 26.2938 77.8777 25.3251C78.3377 24.547 78.9498 23.9332 79.7158 23.4826C80.4818 23.0319 81.3095 22.8023 82.2009 22.7876C82.6886 22.7876 83.3282 22.9371 84.123 23.231C84.9156 23.5258 85.4245 23.6753 85.6476 23.6753C85.8144 23.6753 86.3798 23.5005 87.3382 23.1519C88.2445 22.8287 89.0094 22.6949 89.636 22.7476C91.334 22.8834 92.6097 23.5467 93.4581 24.7418C91.9395 25.6536 91.1883 26.9307 91.2032 28.5691C91.2169 29.8452 91.6841 30.9071 92.6022 31.7503C93.0183 32.1417 93.483 32.4441 94 32.6589C93.8879 32.9812 93.7695 33.2898 93.6437 33.5861ZM89.7494 18.4001C89.7494 19.4003 89.3806 20.3343 88.6456 21.1987C87.7586 22.2263 86.6857 22.8201 85.5223 22.7264C85.5075 22.6064 85.4989 22.4801 85.4989 22.3474C85.4989 21.3872 85.9207 20.3596 86.6698 19.5193C87.0438 19.0939 87.5194 18.7402 88.0962 18.458C88.6718 18.18 89.2162 18.0263 89.7282 18C89.7431 18.1337 89.7494 18.2674 89.7494 18.4001V18.4001Z" fill="white"/>
<path d="M113.998 33.5H111.827L115.811 22.1875H118.311L122.311 33.5H120.139L119.202 30.7031H114.936L113.998 33.5ZM115.483 29.0625H118.655L117.108 24.5H117.014L115.483 29.0625ZM123.241 36.6875V25.0156H125.194V26.4062H125.319C125.632 25.7969 126.257 24.9062 127.757 24.9062C129.71 24.9062 131.257 26.4375 131.257 29.2656C131.257 32.0625 129.757 33.6562 127.757 33.6562C126.288 33.6562 125.632 32.7812 125.319 32.1562H125.241V36.6875H123.241ZM125.194 29.25C125.194 30.9062 125.913 32.0156 127.21 32.0156C128.522 32.0156 129.225 30.8594 129.225 29.25C129.225 27.6719 128.538 26.5312 127.21 26.5312C125.913 26.5312 125.194 27.6094 125.194 29.25ZM132.499 36.6875V25.0156H134.452V26.4062H134.577C134.89 25.7969 135.515 24.9062 137.015 24.9062C138.968 24.9062 140.515 26.4375 140.515 29.2656C140.515 32.0625 139.015 33.6562 137.015 33.6562C135.546 33.6562 134.89 32.7812 134.577 32.1562H134.499V36.6875H132.499ZM134.452 29.25C134.452 30.9062 135.171 32.0156 136.468 32.0156C137.78 32.0156 138.483 30.8594 138.483 29.25C138.483 27.6719 137.796 26.5312 136.468 26.5312C135.171 26.5312 134.452 27.6094 134.452 29.25ZM143.757 22.1875V33.5H141.757V22.1875H143.757ZM149.109 33.6719C146.547 33.6719 144.984 31.9688 144.984 29.3125C144.984 26.6875 146.578 24.9062 149 24.9062C151.078 24.9062 152.875 26.2031 152.875 29.1875V29.8125H146.953C146.976 31.2578 147.828 32.1094 149.125 32.1094C150 32.1094 150.593 31.7344 150.843 31.2344H152.797C152.437 32.7031 151.078 33.6719 149.109 33.6719ZM146.968 28.4531H150.968C150.953 27.2969 150.187 26.4531 149.031 26.4531C147.828 26.4531 147.031 27.3672 146.968 28.4531ZM166.523 31.8125V33.25H153.617V31.8125H159.18V29.5156H155.148V24.8906H163.273V23.1406H155.117V21.7344H164.992V26.2656H156.883V28.0938H165.32V29.5156H160.898V31.8125H166.523ZM182.79 20.7656V34.8906H181.133V20.7656H182.79ZM179.868 21.1094V34.2188H178.212V29.5H176.008V28.0781H178.212V25.9844H176.258C175.594 28.3281 174.118 30.3438 171.477 31.9062L170.462 30.6719C173.391 28.9453 174.735 26.7344 174.993 23.8906H171.212V22.4844H176.712C176.712 23.1953 176.665 23.8906 176.571 24.5625H178.212V21.1094H179.868ZM196.985 27.7031V29.1094H184.11V27.7031H189.673V25.7344H191.392V27.7031H196.985ZM191.407 21.5312C191.407 23.25 193.298 24.8125 196.251 25.1875L195.579 26.5469C193.259 26.1875 191.415 25.1406 190.517 23.6562C189.61 25.1406 187.767 26.1875 185.438 26.5469L184.813 25.1875C187.72 24.8125 189.642 23.2188 189.642 21.5312V21H191.407V21.5312ZM195.407 30.2344V34.8906H193.673V31.5938H185.532V30.2344H195.407ZM208.681 20.7656V26.3906H210.853V27.8281H208.681V34.8906H206.962V20.7656H208.681ZM205.868 22.9375V24.3281H197.54V22.9375H200.884V20.9688H202.618V22.9375H205.868ZM201.759 25.25C203.79 25.25 205.306 26.625 205.306 28.5781C205.306 30.5312 203.79 31.8906 201.759 31.8906C199.697 31.8906 198.181 30.5312 198.197 28.5781C198.181 26.625 199.697 25.25 201.759 25.25ZM201.759 26.6719C200.65 26.6719 199.853 27.4219 199.853 28.5781C199.853 29.7344 200.65 30.4688 201.759 30.4531C202.837 30.4688 203.634 29.7344 203.65 28.5781C203.634 27.4219 202.837 26.6719 201.759 26.6719ZM222.923 20.7656V34.8906H221.173V20.7656H222.923ZM218.705 22.2656C218.705 26.4688 217.08 30.0469 212.127 32.3906L211.22 31C214.916 29.2422 216.634 26.8516 216.939 23.6406H211.939V22.2656H218.705Z" fill="#F3F3F3"/>
</svg>
