<svg width="300" height="56" viewBox="0 0 300 56" fill="none" xmlns="http://www.w3.org/2000/svg">
<rect width="300" height="56" rx="28" fill="#FEE500"/>
<g clip-path="url(#clip0_665_5287)">
<path fill-rule="evenodd" clip-rule="evenodd" d="M76.5001 19.6001C71.5292 19.6001 67.5001 22.7131 67.5001 26.5524C67.5001 28.9401 69.0585 31.0451 71.4316 32.2971L70.4331 35.9446C70.3449 36.2669 70.7135 36.5238 70.9965 36.337L75.3734 33.4483C75.7428 33.4839 76.1181 33.5047 76.5001 33.5047C81.4705 33.5047 85.5 30.3919 85.5 26.5524C85.5 22.7131 81.4705 19.6001 76.5001 19.6001Z" fill="black"/>
</g>
<path d="M101.312 22.1562C101.312 26.4219 100.141 30.0781 94.9375 32.6719L93.9844 31.3594C96.4297 30.1484 97.8828 28.7422 98.7031 27.0625L94.3125 27.4844L94.0938 25.9844L99.2344 25.6562C99.4141 25 99.5234 24.3047 99.5781 23.5625H94.8281V22.1562H101.312ZM105.031 20.7656V26.2969H107.125V27.7188H105.031V34.8594H103.297V20.7656H105.031ZM114.821 22.1562C114.821 26.4219 113.649 30.0781 108.446 32.6719L107.493 31.3594C109.938 30.1484 111.391 28.7422 112.211 27.0625L107.821 27.4844L107.602 25.9844L112.743 25.6562C112.922 25 113.032 24.3047 113.086 23.5625H108.336V22.1562H114.821ZM118.539 20.7656V26.2969H120.633V27.7188H118.539V34.8594H116.805V20.7656H118.539ZM127.407 21.5625C130.438 21.5625 132.673 23.0781 132.673 25.375C132.673 27.4922 130.852 28.9062 128.266 29.1562V31.75H133.891V33.1719H120.985V31.75H126.548V29.1562C123.977 28.9062 122.157 27.4922 122.173 25.375C122.157 23.0781 124.391 21.5625 127.407 21.5625ZM127.407 22.9688C125.344 22.9531 123.86 23.8906 123.876 25.375C123.86 26.9062 125.344 27.8125 127.407 27.8125C129.501 27.8125 130.969 26.9062 130.969 25.375C130.969 23.8906 129.501 22.9531 127.407 22.9688ZM147.368 28.2969V29.6719H134.462V28.2969H140.04V27.1094H136.118V21.1094H145.821V22.4688H137.853V23.4375H145.478V24.7344H137.853V25.7812H145.931V27.1094H141.774V28.2969H147.368ZM145.743 30.6719V34.8906H143.993V32.0469H135.915V30.6719H145.743ZM154.423 21.5625C157.408 21.5625 159.689 23.1406 159.689 25.5469C159.689 27.9844 157.408 29.5625 154.423 29.5625C151.454 29.5625 149.173 27.9844 149.189 25.5469C149.173 23.1406 151.454 21.5625 154.423 21.5625ZM154.423 22.9688C152.376 22.9531 150.861 23.9844 150.861 25.5469C150.861 27.1406 152.376 28.1406 154.423 28.1406C156.486 28.1406 157.986 27.1406 157.986 25.5469C157.986 23.9844 156.486 22.9531 154.423 22.9688ZM160.908 31.6875V33.1094H148.001V31.6875H160.908ZM174.416 31.8125V33.25H161.509V31.8125H167.072V29.5156H163.041V24.8906H171.166V23.1406H163.009V21.7344H172.884V26.2656H164.775V28.0938H173.213V29.5156H168.791V31.8125H174.416ZM190.682 20.7656V34.8906H189.026V20.7656H190.682ZM187.76 21.1094V34.2188H186.104V29.5H183.901V28.0781H186.104V25.9844H184.151C183.487 28.3281 182.01 30.3438 179.369 31.9062L178.354 30.6719C181.283 28.9453 182.627 26.7344 182.885 23.8906H179.104V22.4844H184.604C184.604 23.1953 184.557 23.8906 184.463 24.5625H186.104V21.1094H187.76ZM204.878 27.7031V29.1094H192.003V27.7031H197.565V25.7344H199.284V27.7031H204.878ZM199.299 21.5312C199.299 23.25 201.19 24.8125 204.143 25.1875L203.471 26.5469C201.151 26.1875 199.307 25.1406 198.409 23.6562C197.503 25.1406 195.659 26.1875 193.331 26.5469L192.706 25.1875C195.612 24.8125 197.534 23.2188 197.534 21.5312V21H199.299V21.5312ZM203.299 30.2344V34.8906H201.565V31.5938H193.424V30.2344H203.299ZM216.573 20.7656V26.3906H218.745V27.8281H216.573V34.8906H214.854V20.7656H216.573ZM213.761 22.9375V24.3281H205.433V22.9375H208.776V20.9688H210.511V22.9375H213.761ZM209.651 25.25C211.683 25.25 213.198 26.625 213.198 28.5781C213.198 30.5312 211.683 31.8906 209.651 31.8906C207.589 31.8906 206.073 30.5312 206.089 28.5781C206.073 26.625 207.589 25.25 209.651 25.25ZM209.651 26.6719C208.542 26.6719 207.745 27.4219 207.745 28.5781C207.745 29.7344 208.542 30.4688 209.651 30.4531C210.729 30.4688 211.526 29.7344 211.542 28.5781C211.526 27.4219 210.729 26.6719 209.651 26.6719ZM230.816 20.7656V34.8906H229.066V20.7656H230.816ZM226.597 22.2656C226.597 26.4688 224.972 30.0469 220.019 32.3906L219.113 31C222.808 29.2422 224.527 26.8516 224.831 23.6406H219.831V22.2656H226.597Z" fill="black" fill-opacity="0.85"/>
<defs>
<clipPath id="clip0_665_5287">
<rect width="17.9999" height="18" fill="white" transform="translate(67.5001 19)"/>
</clipPath>
</defs>
</svg>
