<svg width="59" height="59" viewBox="0 0 59 59" fill="none" xmlns="http://www.w3.org/2000/svg">
<rect x="5" y="5" width="49" height="49" rx="9.39297" fill="#B5D3FF"/>
<ellipse cx="29.4042" cy="43.938" rx="17.2987" ry="2.17746" fill="url(#paint0_radial_1312_5248)" fill-opacity="0.4"/>
<g filter="url(#filter0_d_1312_5248)">
<path d="M24.1044 16.5121C25.7781 11.361 33.0654 11.361 34.7391 16.5121V16.5121C35.4876 18.8157 37.6343 20.3753 40.0564 20.3753V20.3753C45.4725 20.3753 47.7244 27.306 43.3427 30.4895V30.4895C41.3831 31.9132 40.5632 34.4368 41.3117 36.7404V36.7404C42.9853 41.8915 37.0898 46.1748 32.708 42.9913V42.9913C30.7485 41.5676 28.095 41.5676 26.1354 42.9913V42.9913C21.7537 46.1748 15.8581 41.8915 17.5318 36.7404V36.7404C18.2803 34.4368 17.4603 31.9132 15.5008 30.4895V30.4895C11.119 27.306 13.3709 20.3753 18.7871 20.3753V20.3753C21.2092 20.3753 23.3559 18.8157 24.1044 16.5121V16.5121Z" fill="#FFE28B"/>
</g>
<path d="M25.1304 21.2369V21.2369C26.1306 20.4612 27.529 20.4612 28.5292 21.2369V21.2369" stroke="#3F3F3F" stroke-width="0.416181" stroke-linecap="round"/>
<ellipse cx="26.8296" cy="24.9921" rx="1.53271" ry="2.68224" fill="#474747"/>
<path d="M30.2153 21.2369V21.2369C31.2155 20.4612 32.614 20.4612 33.6141 21.2369V21.2369" stroke="#3F3F3F" stroke-width="0.416181" stroke-linecap="round"/>
<ellipse cx="31.9145" cy="24.9921" rx="1.53271" ry="2.68224" fill="#474747"/>
<defs>
<filter id="filter0_d_1312_5248" x="11.9332" y="11.3963" width="34.9774" height="33.9406" filterUnits="userSpaceOnUse" color-interpolation-filters="sRGB">
<feFlood flood-opacity="0" result="BackgroundImageFix"/>
<feColorMatrix in="SourceAlpha" type="matrix" values="0 0 0 0 0 0 0 0 0 0 0 0 0 0 0 0 0 0 127 0" result="hardAlpha"/>
<feOffset/>
<feGaussianBlur stdDeviation="0.626198"/>
<feComposite in2="hardAlpha" operator="out"/>
<feColorMatrix type="matrix" values="0 0 0 0 1 0 0 0 0 0.886722 0 0 0 0 0.546891 0 0 0 1 0"/>
<feBlend mode="normal" in2="BackgroundImageFix" result="effect1_dropShadow_1312_5248"/>
<feBlend mode="normal" in="SourceGraphic" in2="effect1_dropShadow_1312_5248" result="shape"/>
</filter>
<radialGradient id="paint0_radial_1312_5248" cx="0" cy="0" r="1" gradientUnits="userSpaceOnUse" gradientTransform="translate(29.4042 43.938) scale(18.7738 2.36314)">
<stop stop-color="#E0E0E0"/>
<stop offset="1" stop-color="#F2F2F2"/>
</radialGradient>
</defs>
</svg>
