<svg width="40" height="40" viewBox="0 0 40 40" fill="none" xmlns="http://www.w3.org/2000/svg">
<path d="M12.3186 26.0747C11.9021 26.4912 11.8822 27.2351 12.3286 27.6715C12.765 28.1078 13.5089 28.0979 13.9255 27.6814L19.9957 21.6017L26.0758 27.6814C26.5023 28.1078 27.2363 28.1078 27.6727 27.6715C28.0992 27.2252 28.1091 26.5012 27.6727 26.0747L21.6025 19.995L27.6727 13.9253C28.1091 13.4988 28.1091 12.7649 27.6727 12.3285C27.2263 11.9021 26.5023 11.8922 26.0758 12.3186L19.9957 18.3983L13.9255 12.3186C13.5089 11.9021 12.7551 11.8822 12.3286 12.3285C11.8921 12.7649 11.9021 13.5088 12.3186 13.9253L18.3988 19.995L12.3186 26.0747Z" fill="#6C6C77"/>
</svg>
